<?xml version="1.0" encoding="utf-8"?>
<!-- Generator: Adobe Illustrator 16.0.0, SVG Export Plug-In . SVG Version: 6.00 Build 0)  -->
<!DOCTYPE svg PUBLIC "-//W3C//DTD SVG 1.1//EN" "http://www.w3.org/Graphics/SVG/1.1/DTD/svg11.dtd">
<svg version="1.1" id="Layer_1" xmlns="http://www.w3.org/2000/svg" xmlns:xlink="http://www.w3.org/1999/xlink" x="0px" y="0px"
	 width="242.391px" height="65.174px" viewBox="0 0 242.391 65.174" enable-background="new 0 0 242.391 65.174"
	 xml:space="preserve">
<g>
	<g>
		<path d="M131.539,23.364c-4.141,0-7.382,1.244-9.727,3.73c-2.347,2.488-3.519,6.008-3.519,10.562
			c0,4.424,1.269,7.843,3.806,10.258c2.537,2.415,6.06,3.622,10.567,3.622c2.187,0,4.039-0.158,5.56-0.474
			c1.519-0.316,2.944-0.8,4.28-1.446V43.88c-1.637,0.745-3.204,1.288-4.707,1.628c-1.502,0.341-3.098,0.513-4.782,0.513
			c-2.17,0-3.855-0.593-5.058-1.775c-1.203-1.184-1.846-2.827-1.931-4.934h18.056v-3.6c0-3.856-1.103-6.879-3.308-9.066
			C138.575,24.458,135.496,23.364,131.539,23.364z M126.206,34.375c0.133-1.831,0.659-3.245,1.578-4.241
			c0.918-0.996,2.187-1.495,3.806-1.495s2.905,0.499,3.855,1.495c0.951,0.996,1.443,2.411,1.478,4.241H126.206z M161.915,23.364
			c-1.901,0-3.781,0.235-5.476,1.009c-2.176,0.992-3.342,2.705-3.498,2.948l-1.092-3.447h-5.836v27.177h7.639V38.265
			c0-3.209,0.476-5.506,1.428-6.892c0.951-1.385,2.495-2.078,4.632-2.078c1.567,0,2.713,0.491,3.431,1.471
			c0.719,0.98,1.078,2.451,1.078,4.412v15.873h7.637V33.33c0-3.225-0.844-5.692-2.529-7.402
			C167.641,24.219,165.171,23.364,161.915,23.364z M234.259,23.874l-6.153,19.495l-6.133-19.495h-8.015l10.31,27.957l-0.121,0.362
			c-0.568,1.62-1.357,2.831-2.367,3.633c-1.01,0.803-2.19,1.205-3.543,1.205c-1.086,0-2.631-0.247-3.549-0.458v5.884
			c0,0,2.201,0.553,4.426,0.553c5.949,0,10.027-2.526,12.227-8.521c1.205-3.283,11.053-30.615,11.053-30.615H234.259z
			 M185.838,16.275l-7.623,2.266l-0.013,5.285h-4.861v5.615h4.861v13.102c0,2.998,0.694,5.246,2.09,6.745
			c1.394,1.499,3.617,2.249,6.674,2.249c2.007,0,3.782-0.222,5.332-0.654v-5.655c-1.167,0.268-2.213,0.403-3.129,0.403
			c-1.002,0-1.808-0.252-2.417-0.755c-0.609-0.502-0.914-1.279-0.914-2.333V29.441h6.46v-5.567h-6.46V16.275z M205.044,24.762
			c-1.369,0.863-2.487,2.008-3.333,3.379l-1.347-4.267h-5.785v27.177h7.638V37.219c0-2.188,0.682-3.889,2.041-5.104
			c1.36-1.215,3.26-1.823,5.696-1.823c0.879,0,1.753,0.052,2.45,0.184v-6.959c-0.614-0.1-1.344-0.152-2.199-0.152
			C208.468,23.364,206.521,23.83,205.044,24.762z M107.682,30.535c-2.588-1.199-4.229-2.03-4.921-2.491
			c-0.692-0.462-1.198-0.94-1.515-1.434c-0.317-0.494-0.475-1.074-0.475-1.738c0-1.07,0.392-1.937,1.176-2.601
			c0.785-0.665,1.912-0.997,3.38-0.997c1.235,0,2.492,0.154,3.768,0.462c1.277,0.308,3.37,1.007,5.389,1.845l1.96-6.074
			c-1.887-0.794-3.693-1.41-5.421-1.847c-1.728-0.438-3.542-0.657-5.446-0.657c-3.873,0-6.907,0.899-9.102,2.698
			c-2.196,1.799-3.293,4.27-3.293,7.414c0,1.669,0.334,3.128,1.002,4.375c0.667,1.248,1.561,2.342,2.678,3.282
			c1.119,0.939,2.797,1.92,5.034,2.94c2.387,1.104,3.969,1.905,4.745,2.407s1.364,1.024,1.765,1.567
			c0.4,0.543,0.601,1.162,0.601,1.858c0,1.248-0.455,2.188-1.365,2.82c-0.91,0.632-2.216,0.948-3.918,0.948
			c-1.418,0-2.986-0.213-4.694-0.657c-3.084-0.804-5.708-2.278-5.708-2.278l-1.941,6.163c0.497,0.278,5.5,2.995,11.743,2.995
			c4.24,0,7.549-0.924,9.928-2.771c2.379-1.847,3.568-4.375,3.568-7.584c0-2.315-0.634-4.272-1.903-5.871
			C113.449,33.715,111.104,32.124,107.682,30.535z M43.155,4.485C41.516,1.635,39.012,0,36.288,0c-2.725,0-5.229,1.635-6.867,4.485
			l-8.653,15.036c2.155,1.209,4.206,2.582,6.142,4.097c10.334,8.09,17.297,20.311,18.406,34.169h-5.434
			c-1.07-11.854-6.971-22.325-15.708-29.416c-1.91-1.551-3.954-2.938-6.113-4.145L7.923,41.843c2.203,1.185,4.184,2.729,5.872,4.551
			c0.001,0.002,0.003,0.004,0.007,0.006c2.876,3.11,4.884,7.037,5.646,11.39l-9.081-0.005c-0.999,0-1.807-0.812-1.807-1.812
			c0-0.312,0.08-0.606,0.218-0.865l2.292-3.902c-1.688-1.823-3.668-3.366-5.872-4.551L1.353,53.24
			c-1.639,2.85-1.799,5.842-0.437,8.209c1.362,2.368,4.024,3.726,7.305,3.726h18.72c0.133-1.145,0.209-2.308,0.209-3.486
			c0-1.322-0.094-2.621-0.261-3.898c-0.922-7.073-4.316-13.375-9.287-18.002l2.834-4.924c6.581,5.707,11.049,13.798,12.048,22.926
			c0.141,1.281,0.22,2.581,0.22,3.898c0,1.178-0.062,2.34-0.173,3.486h20.193c0.071-1.154,0.119-2.314,0.119-3.486
			c0-1.312-0.061-2.608-0.15-3.898c-1.151-16.586-9.56-31.196-22.071-40.627l4.118-7.155c0.317-0.525,0.893-0.876,1.548-0.876
			c0.674-0.001,1.262,0.37,1.572,0.918l25.922,45.059c0.14,0.259,0.219,0.553,0.219,0.865c0,1.002-0.809,1.812-1.807,1.812
			l-4.068,0.005c0.089,1.29,0.151,2.586,0.151,3.897c0,1.173-0.049,2.334-0.121,3.487h6.182c3.282,0,5.944-1.356,7.305-3.726
			c1.363-2.367,1.203-5.359-0.436-8.209L43.155,4.485z"/>
	</g>
</g>
</svg>
